<svg id="close" xmlns="http://www.w3.org/2000/svg" width="25.008" height="25.008" viewBox="0 0 25.008 25.008">
  <g id="Group_519" data-name="Group 519">
    <path id="Path_32172" data-name="Path 32172" d="M12.5,0a12.5,12.5,0,1,0,12.5,12.5A12.518,12.518,0,0,0,12.5,0Zm5.057,16.088a.521.521,0,0,1,0,.737l-.737.737a.521.521,0,0,1-.737,0L12.5,13.977,8.92,17.561a.521.521,0,0,1-.737,0l-.737-.737a.521.521,0,0,1,0-.737L11.03,12.5,7.447,8.92a.521.521,0,0,1,0-.737l.737-.737a.521.521,0,0,1,.737,0L12.5,11.03l3.584-3.584a.521.521,0,0,1,.737,0l.737.737a.521.521,0,0,1,0,.737L13.977,12.5Z" fill="#acacac"/>
  </g>
</svg>
