<svg xmlns="http://www.w3.org/2000/svg" width="16" height="16" viewBox="0 0 16 16">
    <path fill="#ff5d6c" fill-rule="evenodd" d="M2.769.35l.176.155L8 5.56 13.055.505c.673-.673 1.766-.673 2.44 0 .617.618.669 1.587.154 2.264l-.154.176L10.44 8l5.055 5.055c.673.673.673 1.766 0 2.44-.618.617-1.587.669-2.264.154l-.176-.154L8 10.44l-5.055 5.055c-.673.673-1.766.673-2.44 0-.617-.618-.669-1.587-.154-2.264l.154-.176L5.56 8 .505 2.945c-.673-.673-.673-1.766 0-2.44.618-.617 1.587-.669 2.264-.154z"/>
</svg>
