<svg xmlns="http://www.w3.org/2000/svg" width="25" height="27.667" viewBox="0 0 25 27.667">
  <g id="share" transform="translate(-20.48 -0.001)">
    <g id="Group_353" data-name="Group 353" transform="translate(20.48 0.001)">
      <path id="Path_22524" data-name="Path 22524" d="M41.313,19.57a4.029,4.029,0,0,0-2.729,1.069l-9.9-5.771a3.843,3.843,0,0,0,0-1.944L38.48,7.209a4.157,4.157,0,1,0-1.333-3.042,4.1,4.1,0,0,0,.125.972L27.48,10.855a4.167,4.167,0,1,0,0,6.083l9.9,5.771a3.93,3.93,0,0,0-.111.91,4.049,4.049,0,1,0,4.049-4.049Z" transform="translate(-20.48 -0.001)" fill="#ff5d6c"/>
    </g>
  </g>
</svg>
