<svg xmlns="http://www.w3.org/2000/svg" xmlns:xlink="http://www.w3.org/1999/xlink" width="20" height="20" viewBox="0 0 20 20">
    <defs>
        <path id="a" d="M10 0c5.523 0 10 4.477 10 10s-4.477 10-10 10S0 15.523 0 10 4.477 0 10 0zm0 14a1 1 0 1 0 0 2 1 1 0 0 0 0-2zm0-10a1 1 0 0 0-1 1v7a1 1 0 0 0 2 0V5a1 1 0 0 0-1-1z"/>
    </defs>
    <g fill="none" fill-rule="evenodd">
        <mask id="b" fill="#fff">
            <use xlink:href="#a"/>
        </mask>
        <use fill="#F7A700" fill-rule="nonzero" xlink:href="#a"/>
        <g fill="#F7A700" mask="url(#b)">
            <path d="M-3-2h25v24H-3z"/>
        </g>
    </g>
</svg>
