<svg xmlns="http://www.w3.org/2000/svg" xmlns:xlink="http://www.w3.org/1999/xlink" width="18" height="18" viewBox="0 0 18 18">
    <defs>
        <path id="a" d="M15.364 2.636A9 9 0 1 1 2.636 15.364 9 9 0 0 1 15.364 2.636zm-12.02.707a8 8 0 1 0 11.313 11.314A8 8 0 0 0 3.343 3.343zm3.382 2.332l.077.067L9 7.94l2.197-2.198a.75.75 0 0 1 1.128.984l-.067.077L10.06 9l2.198 2.197a.75.75 0 0 1-.984 1.128l-.077-.067L9 10.06l-2.197 2.198a.75.75 0 0 1-1.128-.984l.067-.077L7.94 9 5.742 6.803a.75.75 0 0 1 .984-1.128z"/>
    </defs>
    <g fill="none" fill-rule="evenodd">
        <mask id="b" fill="#fff">
            <use xlink:href="#a"/>
        </mask>
        <use fill="#979797" fill-rule="nonzero" xlink:href="#a"/>
        <g fill="#4D4D4F" mask="url(#b)">
            <path d="M-3-3h25v24H-3z"/>
        </g>
    </g>
</svg>
