<svg id="bin" xmlns="http://www.w3.org/2000/svg" width="14" height="18.358" viewBox="0 0 14 18.358">
  <path id="Path_22534" data-name="Path 22534" d="M73.921,1.669A.94.94,0,0,1,74.9.722H78.9a.94.94,0,0,1,.974.947V2.706H80.6V1.669A1.662,1.662,0,0,0,78.9,0H74.9a1.663,1.663,0,0,0-1.7,1.669V2.706h.722Zm0,0" transform="translate(-69.898)" fill="#777e87"/>
  <path id="Path_22535" data-name="Path 22535" d="M29.661,136.765h8.534a1.537,1.537,0,0,0,1.461-1.624V124H28.2v11.141a1.537,1.537,0,0,0,1.461,1.624Zm6.567-11.042a.361.361,0,0,1,.722,0v8.525a.361.361,0,0,1-.722,0Zm-2.661,0a.361.361,0,0,1,.722,0v8.525a.361.361,0,1,1-.722,0Zm-2.661,0a.361.361,0,0,1,.722,0v8.525a.361.361,0,1,1-.722,0Zm0,0" transform="translate(-26.927 -118.407)" fill="#777e87"/>
  <path id="Path_22536" data-name="Path 22536" d="M.9,69.8H13.1a.9.9,0,0,0,0-1.8H.9a.9.9,0,0,0,0,1.8Zm0,0" transform="translate(0 -64.933)" fill="#777e87"/>
</svg>
