<svg xmlns="http://www.w3.org/2000/svg" width="46.505" height="50" viewBox="0 0 46.505 50">
  <g id="phone-book" transform="translate(-6.274)">
    <path id="Path_22498" data-name="Path 22498" d="M14.377,7.845a2,2,0,0,1-1.944,2.048H8.221A2,2,0,0,1,6.274,7.845h0A2,2,0,0,1,8.221,5.8h4.21a2,2,0,0,1,1.945,2.047Zm0,11.437a2,2,0,0,0-1.944-2.05H8.221a2,2,0,0,0-1.947,2.05h0a2,2,0,0,0,1.947,2.048h4.21a2,2,0,0,0,1.945-2.048Zm0,11.433a2,2,0,0,0-1.944-2.048H8.221a2,2,0,0,0-1.947,2.048h0a2,2,0,0,0,1.947,2.05h4.21a2,2,0,0,0,1.945-2.05Zm0,11.434A2,2,0,0,0,12.433,40.1H8.221a2,2,0,0,0-1.947,2.045h0A2,2,0,0,0,8.221,44.2h4.21a2,2,0,0,0,1.945-2.05Zm38.4-39.912V47.764A2.236,2.236,0,0,1,50.544,50H12.6a2.236,2.236,0,0,1-2.238-2.236v-1.95H12.43a3.664,3.664,0,0,0,0-7.319H10.363V34.377H12.43a3.663,3.663,0,0,0,0-7.318H10.363V22.943H12.43a3.665,3.665,0,0,0,0-7.321H10.363V11.505H12.43a3.579,3.579,0,0,0,3.482-3.66A3.576,3.576,0,0,0,12.43,4.187H10.363V2.238A2.236,2.236,0,0,1,12.6,0H50.546A2.234,2.234,0,0,1,52.779,2.238ZM27.423,18.99c.053-.664.477-1.38,1.021-1.306a15.07,15.07,0,0,1,2.67,1.488c1.485.762,3.877-5.144,2.767-5.839a19.329,19.329,0,0,0-2.6-1.662,2.888,2.888,0,0,0-.506-.1c-3.871-.867-7.821,2.474-8.224,7.5-.158,1.921-.245,3.845-.283,5.771h-.009c0,.053.006.1.006.158s0,.1-.006.158h.009c.033,1.926.124,3.85.283,5.771.4,5.024,4.353,8.365,8.224,7.5a2.763,2.763,0,0,0,.506-.1,19.04,19.04,0,0,0,2.6-1.664c1.109-.694-1.282-6.6-2.767-5.839a14.894,14.894,0,0,1-2.67,1.491c-.541.074-.968-.645-1.021-1.308-.142-1.752-.015-3.992,0-5.85h0v-.315h0C27.408,22.982,27.281,20.743,27.423,18.99Zm9.631,11.045a7.127,7.127,0,0,0,0-10.072l-1.477,1.48a5.029,5.029,0,0,1,0,7.113Zm2.638,2.632a10.856,10.856,0,0,0,0-15.334L38.212,18.81a8.764,8.764,0,0,1,0,12.383Zm2.55-17.884-1.477,1.476a12.38,12.38,0,0,1,0,17.482l1.477,1.477A14.471,14.471,0,0,0,42.242,14.783Z" fill="#fff"/>
  </g>
</svg>
