<svg id="placeholder" xmlns="http://www.w3.org/2000/svg" width="65.009" height="65.009" viewBox="0 0 65.009 65.009">
  <path id="Path_22501" data-name="Path 22501" d="M29.313,52.978,10.633,23.938l3.4-15.311L29.313,1.083,44.8,8.626l3.545,15.311Z" transform="translate(3.192 0.325)" fill="#fff"/>
  <g id="Group_324" data-name="Group 324">
    <g id="Group_323" data-name="Group 323">
      <path id="Path_22499" data-name="Path 22499" d="M56.261,48.706a76.7,76.7,0,0,0-15.368-2.455l9.041-13.674a20.95,20.95,0,1,0-34.866-.008l9.046,13.682A76.706,76.706,0,0,0,8.748,48.706C5.151,49.75,0,51.736,0,55.486,0,58.566,3.51,61,10.434,62.721A95.709,95.709,0,0,0,32.5,65.009a95.708,95.708,0,0,0,22.07-2.288C61.5,61,65.009,58.566,65.009,55.486,65.009,51.735,59.855,49.749,56.261,48.706ZM18.241,30.461a17.141,17.141,0,1,1,28.521.008L32.5,52.033ZM59.726,56.809C53.81,60.279,39.97,61.2,32.5,61.2c-7.125,0-21.209-.864-27.222-4.391-1.211-.711-1.473-1.232-1.473-1.323,0-.274,1.068-1.69,6-3.121a77.024,77.024,0,0,1,16.733-2.444l4.374,6.615a1.9,1.9,0,0,0,3.177,0l4.374-6.615A77.032,77.032,0,0,1,55.2,52.365c4.932,1.431,6,2.847,6,3.121C61.2,55.577,60.937,56.1,59.726,56.809Z" fill="#fff"/>
    </g>
  </g>
  <g id="Group_326" data-name="Group 326" transform="translate(22.982 11.427)">
    <g id="Group_325" data-name="Group 325">
      <path id="Path_22500" data-name="Path 22500" d="M190.523,90a9.523,9.523,0,1,0,9.523,9.523A9.534,9.534,0,0,0,190.523,90Zm0,15.236a5.714,5.714,0,1,1,5.714-5.714A5.72,5.72,0,0,1,190.523,105.236Z" transform="translate(-181 -90)" fill="#94c546"/>
    </g>
  </g>
</svg>
