<svg xmlns="http://www.w3.org/2000/svg" width="26.881" height="17.921" viewBox="0 0 26.881 17.921">
  <g id="credit-card" transform="translate(0 -85.333)">
    <g id="Group_410" data-name="Group 410" transform="translate(0 92.053)">
      <g id="Group_409" data-name="Group 409">
        <path id="Path_22547" data-name="Path 22547" d="M26.321,213.333H.56a.529.529,0,0,0-.56.56v7.84a2.773,2.773,0,0,0,2.8,2.8H24.081a2.773,2.773,0,0,0,2.8-2.8v-7.84A.529.529,0,0,0,26.321,213.333Zm-22.4,4.48H8.4a.56.56,0,1,1,0,1.12H3.92a.56.56,0,1,1,0-1.12Zm7.84,3.36H3.92a.56.56,0,0,1,0-1.12h7.84a.56.56,0,0,1,0,1.12Zm9.52,0a1.892,1.892,0,0,1-1.12-.336,1.892,1.892,0,0,1-1.12.336,2.24,2.24,0,1,1,0-4.48,1.892,1.892,0,0,1,1.12.336,1.892,1.892,0,0,1,1.12-.336,2.24,2.24,0,1,1,0,4.48Z" transform="translate(0 -213.333)" fill="#fff"/>
      </g>
    </g>
    <g id="Group_412" data-name="Group 412" transform="translate(0 85.333)">
      <g id="Group_411" data-name="Group 411" transform="translate(0 0)">
        <path id="Path_22548" data-name="Path 22548" d="M24.081,85.333H2.8a2.773,2.773,0,0,0-2.8,2.8v1.12a.529.529,0,0,0,.56.56H26.321a.529.529,0,0,0,.56-.56v-1.12A2.773,2.773,0,0,0,24.081,85.333Z" transform="translate(0 -85.333)" fill="#fff"/>
      </g>
    </g>
  </g>
</svg>
