<svg xmlns="http://www.w3.org/2000/svg" width="29.993" height="17.75" viewBox="0 0 29.993 17.75">
  <path id="fast-delivery" d="M8.611.177c-2.6.6-3.6,2.124-4.842,4.217H8.611Zm15.2,4.393a.771.771,0,0,0-.879.82.879.879,0,0,0,.876.879h5.309a.879.879,0,0,1,0,1.757H21.206a.879.879,0,1,0,0,1.757h7.912a.879.879,0,0,1,0,1.757H27.181v2.636a.879.879,0,0,1-.879.879H24.536a3.369,3.369,0,0,1-6.6,0H9.012a3.369,3.369,0,0,1-6.6,0H.878A.879.879,0,0,1,0,14.177V8.9C0,6.326,2.719,6.155,2.721,6.151H9.49a.879.879,0,0,0,.879-.879V0H26.3a.879.879,0,0,1,.879.879V2.812h1.054a.879.879,0,1,1,0,1.757ZM4.572,13.243a1.611,1.611,0,1,0,2.75,1.139A1.611,1.611,0,0,0,4.572,13.243Zm15.524,0a1.611,1.611,0,1,0,2.75,1.139A1.611,1.611,0,0,0,20.1,13.243Zm0,0" transform="translate(0 0)" fill="#fff" fill-rule="evenodd"/>
</svg>
