<svg xmlns="http://www.w3.org/2000/svg" width="21.484" height="24.608" viewBox="0 0 21.484 24.608">
  <g id="product" transform="translate(0)">
    <path id="Path_32252" data-name="Path 32252" d="M122.01,13.025h8.651a.721.721,0,0,0,.721-.721V3.6a.721.721,0,0,0-.721-.721H128.5V2.163a2.163,2.163,0,0,0-4.326,0v.721H122.01a.721.721,0,0,0-.721.721v8.7A.721.721,0,0,0,122.01,13.025Zm3.6-10.862a.721.721,0,1,1,1.442,0v.721h-1.442Zm0,0" transform="translate(-115.46)" fill="#fff"/>
    <path id="Path_32253" data-name="Path 32253" d="M21.379,241.347a.721.721,0,0,0-.617-.348,3.416,3.416,0,0,0-3.025,1.83l-2.211,4.221a2.158,2.158,0,0,1-1.916,1.159h-4.9a.721.721,0,0,1,0-1.442h4.9a.72.72,0,0,0,.639-.387l.826-1.577a.628.628,0,0,0-.557-.92H7.023a3.582,3.582,0,0,0-2.549,1.056L.211,249.2a.721.721,0,0,0,0,1.019l3.6,3.591a.72.72,0,0,0,1.019,0l2.735-2.721h6.039a5.035,5.035,0,0,0,4.471-2.7l3.32-6.333a.718.718,0,0,0-.021-.708Zm0,0" transform="translate(0 -229.416)" fill="#fff"/>
  </g>
</svg>
