<svg xmlns="http://www.w3.org/2000/svg" width="134.904" height="100" viewBox="0 0 134.904 100">
  <g id="undraw_deliveries_131a" transform="translate(0 0.098)">
    <path id="Path_22765" data-name="Path 22765" d="M735.36,157.411l1.061-.655c.1-.064.2-.132.3-.2a10.139,10.139,0,0,1-8.409-9.52,10.033,10.033,0,0,1,.875-4.618,10.156,10.156,0,0,1,6.509-5.616l-.053,4.178,2.295-4.547a.092.092,0,0,1,.028,0,10.137,10.137,0,0,1,10.6,9.654c.009.193,0,.384,0,.568a12.122,12.122,0,0,0,2-2.957c.972-2.167.995-4.621.914-7.6-.153-5.911-.408-11.866-.74-17.8a10.131,10.131,0,0,1-9-9.59c-.014-.311-.01-.617,0-.921a1.526,1.526,0,0,1,.011-.227c.02-.294.047-.585.092-.872a.828.828,0,0,1,.026-.142q.063-.365.149-.722c.023-.088.044-.178.068-.266a7.685,7.685,0,0,1,.24-.764c.03-.084.065-.165.1-.247.073-.185.151-.367.233-.547.044-.1.087-.189.134-.284.011-.024.021-.048.034-.072h0a10.13,10.13,0,0,1,11.9-5.141l-.068,5.437,2.274-4.49a10.075,10.075,0,0,1,4.831,10.923h.011c-.016.072-.038.142-.055.213-.031.134-.065.266-.1.4-.048.169-.1.335-.158.5-.043.124-.084.25-.131.372-.068.179-.142.354-.224.529-.046.1-.087.206-.142.307q-.195.392-.426.767c-.053.087-.112.169-.168.256-.108.168-.217.334-.335.5-.073.1-.151.195-.227.293-.111.142-.225.284-.342.414-.084.1-.169.189-.257.284-.124.131-.251.257-.384.382-.087.084-.175.168-.266.247-.149.132-.306.259-.463.382-.08.063-.156.128-.239.188q-.36.267-.743.5c-.048.028-.1.053-.142.081-.213.126-.426.244-.655.355-.1.047-.195.088-.293.132-.183.082-.368.162-.557.234-.109.041-.222.08-.334.118-.186.064-.375.122-.568.175-.114.031-.226.063-.341.09-.207.05-.419.091-.632.126a.072.072,0,0,0-.041.009q.21,3.757.374,7.518a10.131,10.131,0,0,1,14.068-4.4l-1.792,4.909,3.686-3.54a10.109,10.109,0,0,1,3.268,7,9.923,9.923,0,0,1-.257,2.792,10.133,10.133,0,0,1-18.639,2.761c0,.254.018.51.026.764.067,2.632.151,5.906-1.161,8.83a17.736,17.736,0,0,1-3.733,5.034c-.919.939-1.873,1.847-2.85,2.727a10.137,10.137,0,0,1-3.66,3.044q-2.409,1.856-4.988,3.476l-1.044.674c-.965.6-1.954,1.212-2.924,1.847.171-.017.34-.036.513-.043a10.141,10.141,0,0,1,9.981,6.6l-6.335,5.157,6.963-1.616a10.141,10.141,0,0,1-14.534,9.13c.156.2.314.391.47.585.311.388.621.773.924,1.155,4.121,5.219,5.269,10.176,3.227,13.954l-2.481-1.341c1.989-3.677-.995-8.384-2.96-10.865-.3-.375-.6-.753-.908-1.137-2.633-3.268-5.617-6.98-5.542-11.528C723.348,164.855,730.011,160.725,735.36,157.411Z" transform="translate(-638.262 -98.18)" fill="#f2f2f2"/>
    <ellipse id="Ellipse_28" data-name="Ellipse 28" cx="64.725" cy="2.984" rx="64.725" ry="2.984" transform="translate(0 93.934)" fill="#3f3d56"/>
    <path id="Path_22766" data-name="Path 22766" d="M937.726,668.919a2.355,2.355,0,0,0-.608-2.441,3.953,3.953,0,0,1-1.209-2.315c.02-1.279,1.377-2.033,2.463-2.711a12.047,12.047,0,0,0,2.21-1.778,3.239,3.239,0,0,0,.681-.909,3.712,3.712,0,0,0,.2-1.617q-.071-2.737-.27-5.468" transform="translate(-820.711 -573.114)" fill="none" stroke="#3f3d56" stroke-miterlimit="10" stroke-width="4"/>
    <path id="Path_22767" data-name="Path 22767" d="M963.54,639.513a2,2,0,0,0-.995-1.634l-.446.884.013-1.069a1.994,1.994,0,1,0,1.421,1.819Z" transform="translate(-840.995 -561.044)" fill="#57b793"/>
    <path id="Path_22768" data-name="Path 22768" d="M939.9,728.491a1.989,1.989,0,1,1,.1-1.606l-1.245,1.013,1.37-.318A1.989,1.989,0,0,1,939.9,728.491Z" transform="translate(-820.912 -636.523)" fill="#57b793"/>
    <path id="Path_22769" data-name="Path 22769" d="M943.068,694.632a1.989,1.989,0,0,1-2.083-1.9,1.961,1.961,0,0,1,.172-.908,2,2,0,0,1,1.279-1.105l-.01.823.452-.9h0a2,2,0,0,1,.186,3.986Z" transform="translate(-825.064 -606.542)" fill="#57b793"/>
    <path id="Path_22770" data-name="Path 22770" d="M977.14,671.964a1.992,1.992,0,1,1,.881-3.726l-.352.966.725-.7a1.989,1.989,0,0,1,.645,1.377,1.947,1.947,0,0,1-.051.549A1.989,1.989,0,0,1,977.14,671.964Z" transform="translate(-854.294 -587.101)" fill="#57b793"/>
    <path id="Path_22771" data-name="Path 22771" d="M963.407,646.61c-.46.051-.908.195-1.37.223a1.491,1.491,0,0,1-1.262-.442,6.307,6.307,0,0,1-.369-.648,1.421,1.421,0,0,0-.5-.473,1.989,1.989,0,1,0,3.729,1.324C963.556,646.6,963.48,646.6,963.407,646.61Z" transform="translate(-841.13 -567.615)" opacity="0.1"/>
    <path id="Path_22772" data-name="Path 22772" d="M977.111,678.842a1.989,1.989,0,0,1-1.9-2.842,1.477,1.477,0,0,1,.4.4,6.418,6.418,0,0,0,.4.659,1.626,1.626,0,0,0,1.323.462c.482-.023.945-.158,1.421-.2.065,0,.134-.011.2-.013A1.989,1.989,0,0,1,977.111,678.842Z" transform="translate(-854.266 -593.978)" opacity="0.1"/>
    <path id="Path_22773" data-name="Path 22773" d="M943.068,701.758a1.989,1.989,0,0,1-2.083-1.9,1.961,1.961,0,0,1,.172-.908,1.639,1.639,0,0,1,.426.405c.155.219.252.47.426.672a1.842,1.842,0,0,0,1.412.494c.51-.013.969-.132,1.461-.169A2,2,0,0,1,943.068,701.758Z" transform="translate(-825.064 -613.667)" opacity="0.1"/>
    <path id="Path_22774" data-name="Path 22774" d="M939.576,736.134a1.993,1.993,0,0,1-3.636-1.634,2.068,2.068,0,0,1,.438.391,7.863,7.863,0,0,0,.534.71,2.482,2.482,0,0,0,1.651.58A8.549,8.549,0,0,0,939.576,736.134Z" transform="translate(-820.587 -644.166)" opacity="0.1"/>
    <path id="Path_22775" data-name="Path 22775" d="M927.54,761.512a5.759,5.759,0,0,0,2.048-.386c.475-.338,2.416-.742,2.539-.2s2.366,2.7.588,2.708a15.349,15.349,0,0,1-4.6-.568C927.639,762.783,927.54,761.512,927.54,761.512Z" transform="translate(-813.532 -666.609)" fill="#656380"/>
    <path id="Path_22776" data-name="Path 22776" d="M932.746,768.55a15.169,15.169,0,0,1-4.6-.568c-.359-.219-.5-1.007-.551-1.371h-.053s.1,1.269.568,1.563a14.913,14.913,0,0,0,4.6.568c.513,0,.691-.188.681-.458C933.325,768.444,933.129,768.547,932.746,768.55Z" transform="translate(-813.532 -671.713)" opacity="0.2"/>
    <path id="Path_22777" data-name="Path 22777" d="M264.514,488.416c-1.032-1.91.142-4.249,1.483-5.951s2.984-3.473,2.948-5.643c-.051-3.118-3.359-4.958-6-6.61a29.313,29.313,0,0,1-5.39-4.333,7.872,7.872,0,0,1-1.657-2.218,9,9,0,0,1-.5-3.94q.171-6.678.659-13.331" transform="translate(-236.889 -396.995)" fill="none" stroke="#3f3d56" stroke-miterlimit="10" stroke-width="4"/>
    <path id="Path_22778" data-name="Path 22778" d="M224.727,416.723a4.861,4.861,0,0,1,2.427-3.979l1.088,2.153-.033-2.606a4.863,4.863,0,1,1-3.483,4.436Z" transform="translate(-210.582 -367.571)" fill="#57b793"/>
    <path id="Path_22779" data-name="Path 22779" d="M282.537,633.523a4.86,4.86,0,0,0,9.178-1.989,4.8,4.8,0,0,0-.317-1.972,4.863,4.863,0,0,0-9.094.053l3.037,2.47L282,631.307A4.807,4.807,0,0,0,282.537,633.523Z" transform="translate(-259.721 -551.468)" fill="#57b793"/>
    <path id="Path_22780" data-name="Path 22780" d="M274.721,551.141a4.862,4.862,0,0,0,1.542-9.537l.026,2-1.094-2.178h-.013a4.863,4.863,0,0,0-.453,9.715Z" transform="translate(-249.505 -478.523)" fill="#57b793"/>
    <path id="Path_22781" data-name="Path 22781" d="M191.6,495.869a4.863,4.863,0,1,0-2.148-9.094l.853,2.355-1.761-1.7a4.84,4.84,0,0,0-1.577,3.356,4.742,4.742,0,0,0,.124,1.339A4.861,4.861,0,0,0,191.6,495.869Z" transform="translate(-178.184 -431.105)" fill="#57b793"/>
    <path id="Path_22782" data-name="Path 22782" d="M226.006,434.068c1.123.124,2.214.472,3.339.541a3.63,3.63,0,0,0,3.075-1.074,15.163,15.163,0,0,0,.9-1.583,3.45,3.45,0,0,1,1.225-1.152,4.863,4.863,0,1,1-9.094,3.227C225.639,434.036,225.824,434.048,226.006,434.068Z" transform="translate(-211.206 -383.62)" opacity="0.1"/>
    <path id="Path_22783" data-name="Path 22783" d="M192.414,512.684a4.865,4.865,0,0,0,4.625-6.934,3.6,3.6,0,0,0-.978.978,15.761,15.761,0,0,1-.963,1.607,3.979,3.979,0,0,1-3.224,1.128c-1.174-.053-2.306-.388-3.474-.494-.162-.014-.327-.026-.49-.03A4.861,4.861,0,0,0,192.414,512.684Z" transform="translate(-179.001 -447.92)" opacity="0.1"/>
    <path id="Path_22784" data-name="Path 22784" d="M275.981,568.495a4.861,4.861,0,0,0,4.664-6.845,3.932,3.932,0,0,0-1.027.995,16.671,16.671,0,0,1-1.056,1.638,4.494,4.494,0,0,1-3.442,1.206c-1.2-.026-2.363-.321-3.559-.414A4.865,4.865,0,0,0,275.981,568.495Z" transform="translate(-250.764 -495.877)" opacity="0.1"/>
    <path id="Path_22785" data-name="Path 22785" d="M285.78,652.322a4.86,4.86,0,0,0,9.178-1.989,4.8,4.8,0,0,0-.317-1.972,4.868,4.868,0,0,0-1.066.951,18.7,18.7,0,0,1-1.3,1.728,6.131,6.131,0,0,1-4.027,1.421A20.847,20.847,0,0,1,285.78,652.322Z" transform="translate(-262.964 -570.266)" opacity="0.1"/>
    <path id="Path_22786" data-name="Path 22786" d="M215.886,530.117l-18.757,3.837-.426-.043-16.483-1.663V511.36l20.178-3.41,14.636,1.705,0,.092v.045Z" transform="translate(-154.611 -435.856)" fill="#3acc6c"/>
    <path id="Path_22787" data-name="Path 22787" d="M315.4,540.969l-18.757,3.837-.426-.043V523.35l18.335-2.75Z" transform="translate(-254.128 -446.709)" opacity="0.1"/>
    <path id="Path_22788" data-name="Path 22788" d="M215.039,509.793l-.006,0-18.33,2.7L180.22,511.36l20.178-3.41,14.636,1.705,0,.092Z" transform="translate(-154.611 -435.856)" opacity="0.05"/>
    <path id="Path_22789" data-name="Path 22789" d="M360.886,536.117l-18.757,3.837-.426-.043-16.483-1.663V517.36l20.178-3.41,14.636,1.705,0,.092v.045Z" transform="translate(-279.007 -441.004)" fill="#3f3d56"/>
    <path id="Path_22790" data-name="Path 22790" d="M460.4,546.969l-18.757,3.837-.426-.043V529.35l18.335-2.75Z" transform="translate(-378.524 -451.856)" opacity="0.1"/>
    <path id="Path_22791" data-name="Path 22791" d="M360.039,515.793l-.006,0-18.33,2.7L325.22,517.36l20.178-3.41,14.636,1.705,0,.092Z" transform="translate(-279.007 -441.004)" opacity="0.05"/>
    <path id="Path_22792" data-name="Path 22792" d="M269.886,392.117l-18.757,3.837-.426-.043-16.483-1.663V373.36l20.178-3.41,14.636,1.705,0,.092v.045Z" transform="translate(-200.938 -317.466)" fill="#3f3d56"/>
    <path id="Path_22793" data-name="Path 22793" d="M369.4,402.97l-18.757,3.837-.426-.043V385.35l18.335-2.75Z" transform="translate(-300.455 -328.318)" opacity="0.1"/>
    <path id="Path_22794" data-name="Path 22794" d="M269.039,371.793l-.006,0-18.33,2.7L234.22,373.36l20.178-3.41,14.636,1.705,0,.092Z" transform="translate(-200.938 -317.466)" opacity="0.05"/>
    <path id="Path_22795" data-name="Path 22795" d="M447.835,462.259l-9.789,2-.223-.023-8.6-.868v-10.9l10.531-1.78,7.639.891,0,.048v.023Z" transform="translate(-368.229 -386.733)" fill="#3f3d56"/>
    <path id="Path_22796" data-name="Path 22796" d="M499.772,467.93l-9.789,2-.223-.023V458.735l9.57-1.435Z" transform="translate(-420.167 -392.404)" opacity="0.1"/>
    <path id="Path_22797" data-name="Path 22797" d="M447.393,451.652l0,0-9.567,1.41-8.6-.594,10.531-1.78,7.639.891,0,.048Z" transform="translate(-368.229 -386.733)" opacity="0.05"/>
    <path id="Path_22798" data-name="Path 22798" d="M262.835,313.259l-9.789,2-.223-.021-8.6-.868v-10.9l10.531-1.78,7.639.891,0,.048v.023Z" transform="translate(-209.517 -258.905)" fill="#3f3d56"/>
    <path id="Path_22799" data-name="Path 22799" d="M314.772,318.93l-9.789,2-.223-.021V309.735l9.57-1.435Z" transform="translate(-261.455 -264.576)" opacity="0.1"/>
    <path id="Path_22800" data-name="Path 22800" d="M262.393,302.652l0,0-9.567,1.41-8.6-.594,10.531-1.78,7.639.891,0,.048Z" transform="translate(-209.517 -258.905)" opacity="0.05"/>
    <path id="Path_22801" data-name="Path 22801" d="M383.835,310.259l-9.789,2-.223-.021-8.6-.868v-10.9l10.531-1.78,7.639.891,0,.048v.023Z" transform="translate(-313.324 -256.332)" fill="#3acc6c"/>
    <path id="Path_22802" data-name="Path 22802" d="M435.772,315.93l-9.789,2-.223-.021V306.735l9.57-1.435Z" transform="translate(-365.261 -262.002)" opacity="0.1"/>
    <path id="Path_22803" data-name="Path 22803" d="M383.393,299.652l0,0-9.567,1.41-8.6-.594,10.531-1.78,7.639.891,0,.048Z" transform="translate(-313.324 -256.332)" opacity="0.05"/>
    <path id="Path_22804" data-name="Path 22804" d="M419.835,233.259l-9.789,2-.223-.021-8.6-.868v-10.9l10.531-1.78,7.639.891,0,.048v.023Z" transform="translate(-344.208 -190.273)" fill="#3f3d56"/>
    <path id="Path_22805" data-name="Path 22805" d="M471.772,238.93l-9.789,2-.223-.021V229.735l9.57-1.435Z" transform="translate(-396.146 -195.944)" opacity="0.1"/>
    <path id="Path_22806" data-name="Path 22806" d="M419.393,222.652l0,0-9.567,1.41-8.6-.594,10.531-1.78,7.639.891,0,.048Z" transform="translate(-344.208 -190.273)" opacity="0.05"/>
    <path id="Path_22807" data-name="Path 22807" d="M697.2,226.992c-.1.924-.809,1.668-1.07,2.558a4.25,4.25,0,0,0,1.216,3.837,8.493,8.493,0,0,0,5.914,2.8,2.545,2.545,0,0,0,.978-.107,2.122,2.122,0,0,0,.743-.509,4.752,4.752,0,0,0,1.225-2.659,14.22,14.22,0,0,0,.034-2.971,1.68,1.68,0,0,0-.111-.6,1.522,1.522,0,0,0-.385-.473,8.952,8.952,0,0,0-1.655-1.2,1.859,1.859,0,0,1-.693-.53,1.734,1.734,0,0,1-.215-.635l-.183-.932a1.827,1.827,0,0,0-.269-.756,1.86,1.86,0,0,0-1.482-.516l-1.989-.078a9.515,9.515,0,0,0-2.035-.08c-.568.112-.377.632-.274,1.1A7.983,7.983,0,0,1,697.2,226.992Z" transform="translate(-614.911 -206.292)" fill="#ffc0c6"/>
    <path id="Path_22808" data-name="Path 22808" d="M697.2,226.992c-.1.924-.809,1.668-1.07,2.558a4.25,4.25,0,0,0,1.216,3.837,8.493,8.493,0,0,0,5.914,2.8,2.545,2.545,0,0,0,.978-.107,2.122,2.122,0,0,0,.743-.509,4.752,4.752,0,0,0,1.225-2.659,14.22,14.22,0,0,0,.034-2.971,1.68,1.68,0,0,0-.111-.6,1.522,1.522,0,0,0-.385-.473,8.952,8.952,0,0,0-1.655-1.2,1.859,1.859,0,0,1-.693-.53,1.734,1.734,0,0,1-.215-.635l-.183-.932a1.827,1.827,0,0,0-.269-.756,1.86,1.86,0,0,0-1.482-.516l-1.989-.078a9.515,9.515,0,0,0-2.035-.08c-.568.112-.377.632-.274,1.1A7.983,7.983,0,0,1,697.2,226.992Z" transform="translate(-614.911 -206.292)" opacity="0.1"/>
    <path id="Path_22809" data-name="Path 22809" d="M730.94,509.583l-.844,9.253c-.22,2.427-.445,4.864-.877,7.26-.142.826-.324,1.647-.531,2.461A52.381,52.381,0,0,0,727,535.345c-.009.067-.016.142-.023.2a6.085,6.085,0,0,1-.284,1.506c-.142.354-.342.676-.489,1.026a6.725,6.725,0,0,0-.365,2.229,9.612,9.612,0,0,0-3.309-1.137,2.451,2.451,0,0,1-1.563-.568,2.232,2.232,0,0,1-.305-1.795q.335-2.9.668-5.795a15.1,15.1,0,0,1,.426-2.461c.077-.269.169-.533.263-.8.129-.364.26-.728.358-1.1a13.269,13.269,0,0,0,.281-1.823c.229-1.944.5-3.883.746-5.826l.013-.1a59.571,59.571,0,0,0,.558-8.868c-.011-.439-.03-.878-.058-1.319-.04-.638-.1-.976.426-1.375a9.941,9.941,0,0,1,2.021-1.037c.359-.156,4.318-1.563,4.4-1.253a7.714,7.714,0,0,1,.284,2.021A22.487,22.487,0,0,1,730.94,509.583Z" transform="translate(-636.012 -447.283)" fill="#605d82"/>
    <path id="Path_22810" data-name="Path 22810" d="M737.611,610c-.142.826-.324,1.647-.531,2.461a52.381,52.381,0,0,0-1.684,6.788c-.009.067-.016.142-.023.2-1.765-2.521-3.251-5.232-4.973-7.78.129-.364.26-.728.358-1.1a13.276,13.276,0,0,0,.3-1.834c.229-1.944.5-3.883.746-5.826l.013-.1a6.039,6.039,0,0,0,.426,1.2c1.157,2.35,3.9,3.538,5.249,5.788Q737.555,609.9,737.611,610Z" transform="translate(-644.405 -531.188)" opacity="0.1"/>
    <path id="Path_22811" data-name="Path 22811" d="M680.322,438.91a43.707,43.707,0,0,0,.661,5.614l.621,3.837a19.659,19.659,0,0,0,1.69,6.13,28.287,28.287,0,0,0,2.786,3.875c2.384,3.106,4.176,6.626,6.437,9.823.658.929,1.6,1.935,2.718,1.741a4.4,4.4,0,0,0,1.847-1.212,11.492,11.492,0,0,0,2.041-1.664,1.693,1.693,0,0,0-.085-2.356,3.929,3.929,0,0,0-.833-.341,4.506,4.506,0,0,1-2.32-2.643,25.2,25.2,0,0,0-1.364-3.345c-1.344-2.249-4.094-3.437-5.25-5.789a10.447,10.447,0,0,1-.759-4.3l-.126-3.739a2.722,2.722,0,0,1,.142-1.208c.442-.995,1.778-1.088,2.86-1.215a9.769,9.769,0,0,0,3.505-1.106,3.636,3.636,0,0,0,1.563-1.391,4.469,4.469,0,0,0,.381-1.883l.375-6.777a4.274,4.274,0,0,0-.142-1.732c-.516-1.373-2.249-1.822-3.714-1.756-2.725.122-5.24,1.294-7.815,2.087a19.966,19.966,0,0,1-1.937.5,15.706,15.706,0,0,0-1.825.253c-.978.33-.953,2.47-1.091,3.356A28.181,28.181,0,0,0,680.322,438.91Z" transform="translate(-601.436 -380.761)" fill="#605d82"/>
    <path id="Path_22812" data-name="Path 22812" d="M779.444,701.871a1.737,1.737,0,0,1,.381.934,31.852,31.852,0,0,1,.54,5.643.935.935,0,0,0,.1.512.653.653,0,0,0,.266.213,2.043,2.043,0,0,0,2.08-.638,5.364,5.364,0,0,0,2.042-3.626,8.34,8.34,0,0,1,.038-1.1,4.575,4.575,0,0,1,.683-1.474,12.514,12.514,0,0,0,1.137-2.532c.105-.333.176-.75-.085-.982a.913.913,0,0,0-.308-.161l-3.14-1.165c-.273-.1-.949,1.637-1.056,1.827a1.438,1.438,0,0,1-1.052.836c-.527.108-1.178-.048-1.681.22C778.537,700.831,778.962,701.387,779.444,701.871Z" transform="translate(-686.014 -612.415)" fill="#535070"/>
    <path id="Path_22813" data-name="Path 22813" d="M727.089,732.6a.956.956,0,0,0-.239-.3,1.07,1.07,0,0,0-.482-.163,1.877,1.877,0,0,0-1.718.276c-.387.416-.32,1.094-.642,1.563a4.868,4.868,0,0,0-.33.426,1.6,1.6,0,0,0-.142.764c-.017.723-.034,1.449.017,2.171a3.03,3.03,0,0,0,.521,1.715,3.515,3.515,0,0,0,2.677.919l.789.041a1.562,1.562,0,0,0,.645-.06,1.059,1.059,0,0,0,.557-.612c.411-1.02-.239-2.119-.639-3.142C727.642,735.02,727.725,733.714,727.089,732.6Z" transform="translate(-638.502 -642.072)" fill="#535070"/>
    <path id="Path_22814" data-name="Path 22814" d="M686.456,174.022a.644.644,0,0,1,.044-.3c.115-.2.416-.142.644-.091a15.022,15.022,0,0,0,2.819.075,2.227,2.227,0,0,1,2.191,1.448,6.851,6.851,0,0,0,1.738-1.785,2.141,2.141,0,0,0,.453-1.307,2.568,2.568,0,0,0-1.137-1.611l-1.563-1.279a2.375,2.375,0,0,0-.7-.446,3.493,3.493,0,0,0-1.137-.064c-1.137,0-2.356-.519-3.369,0a3.6,3.6,0,0,0-1.05.955l-1.4,1.654a.882.882,0,0,0-.225.379,1.67,1.67,0,0,0,.1.6c.065.369-.094.764.028,1.12.2.588.919.672,1.357,1.01.162.125.418.553.612.547C686.207,174.92,686.446,174.3,686.456,174.022Z" transform="translate(-604.39 -158.53)" fill="#3f3d56"/>
    <circle id="Ellipse_29" data-name="Ellipse 29" cx="4.476" cy="4.476" r="4.476" transform="translate(79.96 11.418)" fill="#ffc0c6"/>
    <path id="Path_22815" data-name="Path 22815" d="M661.772,250.474a2.168,2.168,0,0,0-2.1-1.452.632.632,0,0,1-.389-.05.538.538,0,0,1-.161-.2,7.919,7.919,0,0,1-.652-1.543c-.071-.237-.169-.517-.409-.578a.549.549,0,0,0-.52.227,4.975,4.975,0,0,1-.372.468c-.568.5-1.563.044-2.158.506-.1.075-.179.172-.284.242a1.293,1.293,0,0,1-.328.142A31.458,31.458,0,0,0,651,249.562a31.886,31.886,0,0,0,1.736,7.069c.443,1.066.945,2.11,1.3,3.209a24.913,24.913,0,0,1,.831,7.6,15.934,15.934,0,0,1-.568,5.2,5.029,5.029,0,0,0-.32,1.137,1.182,1.182,0,0,0,.4,1.063,1.352,1.352,0,0,0,.618.217,8.032,8.032,0,0,0,2.937-.341,79.069,79.069,0,0,1,7.869-1.279l4.419-.568a2.584,2.584,0,0,0,.915-.237,1.75,1.75,0,0,0,.382-2.431c-.24-.371-.58-.675-.783-1.067a.991.991,0,0,1,.129-1.215c.711-.554.5-1.582.531-2.48q.142-3.768-.038-7.531a14.724,14.724,0,0,1-.026-1.563,13.793,13.793,0,0,1,.487-2.609l1.343-5.286a2.756,2.756,0,0,0-1.658-1.066c-.635-.159-1.3-.206-1.925-.4-1.279-.4-2.427-1.407-3.767-1.313a.689.689,0,0,0-.293.071c-.3.172-.254.607-.273.953a2.638,2.638,0,0,1-1.231,1.86,22.229,22.229,0,0,0-1.908,1.29.853.853,0,0,0-.338.637Z" transform="translate(-576.287 -224.785)" fill="#3f3d56"/>
    <path id="Path_22816" data-name="Path 22816" d="M587.636,304.793a5.26,5.26,0,0,1-.941.485,3.127,3.127,0,0,0-.9.438,1.428,1.428,0,0,0-.314.388,1.724,1.724,0,0,0,1.589,2.568,3.463,3.463,0,0,0,1.175-.351l3.157-1.374a2.48,2.48,0,0,0,1.364-1.027.247.247,0,0,0,.031-.163.269.269,0,0,0-.131-.142,7.072,7.072,0,0,1-1.837-1.734c-.129-.176-.284-.591-.472-.7C589.688,302.811,588.172,304.446,587.636,304.793Z" transform="translate(-519.886 -274.089)" fill="#ffc0c6"/>
    <path id="Path_22817" data-name="Path 22817" d="M794.028,307l1.164,1.33c.25.284.5.568.728.875a10.186,10.186,0,0,1,1.333,2.511,4.39,4.39,0,0,1,.375,2.076,5.119,5.119,0,0,1-.291,1.056,13.05,13.05,0,0,1-.792,1.9,10.833,10.833,0,0,1-.885,1.331,31.127,31.127,0,0,1-2.951,3.375,3.8,3.8,0,0,0-.737,1.563,6.534,6.534,0,0,1-1.815,2.472,5,5,0,0,1-.78.671,2.529,2.529,0,0,1-1.421.4,1.563,1.563,0,0,1-.638-.132,1.65,1.65,0,0,1-.811-1.374,2.942,2.942,0,0,1,.244-1.472c.668-1.479,2.383-2.12,3.6-3.2a11.734,11.734,0,0,0,1.792-2.214,7.679,7.679,0,0,0,.905-1.587c.27-.723.165-1.579.4-2.312.1-.311.284-.591.385-.9a1.065,1.065,0,0,0-.054-.939,1.357,1.357,0,0,0-.527-.387c-.774-.392-1.641-.9-1.789-1.755a1.878,1.878,0,0,1,.347-1.34,5.54,5.54,0,0,1,.976-1.023C793.118,307.629,793.688,307.293,794.028,307Z" transform="translate(-692.527 -277.412)" fill="#ffc0c6"/>
    <path id="Path_22818" data-name="Path 22818" d="M564.266,320.807a2.154,2.154,0,0,0-.877-1.044,1.614,1.614,0,0,0-1.279,0,4.847,4.847,0,0,0-1.12.676l-1,.74a2.468,2.468,0,0,0-.6.55,2.289,2.289,0,0,0-.31.853,6.193,6.193,0,0,0-.158,2.1,5.987,5.987,0,0,0,1.591,2.984,2.658,2.658,0,0,0,1.762,1.1.809.809,0,0,0,.779-.392.971.971,0,0,0,.07-.35,7.789,7.789,0,0,0-.9-3.643,2.254,2.254,0,0,1-.284-.979.265.265,0,0,1,.043-.165.276.276,0,0,1,.171-.084c.72-.142,1.962.418,2.467-.382C564.948,322.251,564.5,321.277,564.266,320.807Z" transform="translate(-497.263 -288.248)" fill="#ffc0c6"/>
    <path id="Path_22819" data-name="Path 22819" d="M684.813,164.112a.662.662,0,0,1,.045-.3c.115-.2.416-.142.644-.091a15.019,15.019,0,0,0,2.819.075,2.228,2.228,0,0,1,2.191,1.448,6.9,6.9,0,0,0,1.738-1.785,2.148,2.148,0,0,0,.453-1.309,2.567,2.567,0,0,0-1.137-1.61L690,159.258a2.367,2.367,0,0,0-.7-.446,3.5,3.5,0,0,0-1.137-.064c-1.137,0-2.356-.519-3.369,0a3.6,3.6,0,0,0-1.05.955l-1.4,1.654a.886.886,0,0,0-.223.379,1.67,1.67,0,0,0,.1.6c.065.369-.094.764.028,1.118.2.59.919.674,1.357,1.012.162.125.418.553.612.547C684.562,165.01,684.8,164.385,684.813,164.112Z" transform="translate(-602.983 -150.028)" fill="#3f3d56"/>
    <path id="Path_22820" data-name="Path 22820" d="M619.725,275.229a1.856,1.856,0,0,0-.469.436c-.163.249-.2.568-.338.824-.3.56-1.008.76-1.447,1.219a.453.453,0,0,0-.142.239.527.527,0,0,0,.118.344l2.123,3.336c.71.063,1.384-.381,2.092-.321a2.11,2.11,0,0,0,.787.034,2.288,2.288,0,0,0,.5-.308c.426-.267.983-.3,1.337-.649a1.788,1.788,0,0,0,.379-1.346,5.308,5.308,0,0,0-.126-1.236c-.313-1.279-1.292-2.265-1.906-3.4-.3-.553-.462-.875-1.094-.5S620.323,274.791,619.725,275.229Z" transform="translate(-547.401 -248.879)" fill="#3f3d56"/>
    <path id="Path_22821" data-name="Path 22821" d="M793.6,265.533a4.984,4.984,0,0,1,1.069.935c.323.416.506.928.817,1.354a14.8,14.8,0,0,0,1.052,1.114,8.491,8.491,0,0,1,1.214,1.977,29.645,29.645,0,0,1-2.745,3.1.88.88,0,0,1-.418.273.669.669,0,0,1-.588-.24c-.153-.159-.261-.358-.408-.524a2.1,2.1,0,0,0-1.3-.627,8.911,8.911,0,0,0-1.471-.021.568.568,0,0,1-.314-.053.519.519,0,0,1-.171-.2,4.887,4.887,0,0,1-.188-3.322l.465-2.558a5.745,5.745,0,0,1,.388-1.421c.176-.377.568-1.016,1.054-.9S793.187,265.238,793.6,265.533Z" transform="translate(-695.496 -240.87)" fill="#3f3d56"/>
    <path id="Path_22822" data-name="Path 22822" d="M292.835,236.259l-9.789,2-.223-.021-8.6-.868v-10.9l10.531-1.78,7.639.891,0,.048v.023Z" transform="translate(-235.254 -192.847)" fill="#3acc6c"/>
    <path id="Path_22823" data-name="Path 22823" d="M344.772,241.93l-9.789,2-.223-.021V232.735l9.57-1.435Z" transform="translate(-287.192 -198.517)" opacity="0.1"/>
    <path id="Path_22824" data-name="Path 22824" d="M292.393,225.652l0,0-9.567,1.41-8.6-.594,10.531-1.78,7.639.891,0,.048Z" transform="translate(-235.254 -192.847)" opacity="0.05"/>
    <path id="Path_22825" data-name="Path 22825" d="M328.835,160.259l-9.789,2-.223-.023-8.6-.868v-10.9l10.531-1.78,7.639.891,0,.048v.023Z" transform="translate(-266.139 -127.646)" fill="#3f3d56"/>
    <path id="Path_22826" data-name="Path 22826" d="M380.772,165.93l-9.789,2-.223-.023V156.735l9.57-1.435Z" transform="translate(-318.076 -133.317)" opacity="0.1"/>
    <path id="Path_22827" data-name="Path 22827" d="M328.393,149.652l0,0-9.567,1.41-8.6-.594,10.531-1.78,7.639.891,0,.048Z" transform="translate(-266.139 -127.646)" opacity="0.05"/>
  </g>
</svg>
