<svg xmlns="http://www.w3.org/2000/svg" width="158.84" height="100" viewBox="0 0 158.84 100">
  <g id="undraw_heavy_box_agqi" transform="translate(0 0)">
    <path id="Path_22892" data-name="Path 22892" d="M352.562,246.774a55.257,55.257,0,0,0-3.869-48.582l-88.208,12.213,84.531-17.617c-35.626-44.426-104.968-14.959-98.283,41.132Z" transform="translate(-230.308 -171.241)" fill="#e6e6e6"/>
    <rect id="Rectangle_252" data-name="Rectangle 252" width="112.378" height="34.993" transform="translate(13.767 57.477)" fill="#3acc6c"/>
    <path id="Path_22893" data-name="Path 22893" d="M398.733,467.893c1.008.783,1.377,1.036,1.592,1,10.4,3.029,1.283,6.58-3.771.553Z" transform="translate(-353.626 -414.683)" fill="#ffb8b8"/>
    <path id="Path_22894" data-name="Path 22894" d="M60.1,472.49V479.6l5.121-.284-1.422-7.4Z" transform="translate(-49.32 -387.274)" fill="#ffb8b8"/>
    <path id="Path_22895" data-name="Path 22895" d="M195.283,472.49V479.6l-5.121-.284,1.423-7.4Z" transform="translate(-156.054 -387.274)" fill="#ffb8b8"/>
    <path id="Path_22896" data-name="Path 22896" d="M200.809,440.42l7.682-.285c17.72,18.577,11.019,14.34,10.526,39.83l-9.389-2.845,1.992-17.639s.525-.35.09-.358c-2.726.937-4.715-10.661-10.616-9.315-6.716-.321-7.809,9.641-10.526,9.673l1.992,17.639-9.389,2.845c-1.051-28.011-6.2-21.683,10.527-39.83Z" transform="translate(-177.227 -391.904)" fill="#2f2e41"/>
    <path id="Path_22897" data-name="Path 22897" d="M169.423,666.634s-1.138-2.276-2.561-1.138-4.836,4.552-4.836,4.552-8.251,3.7-3.13,5.974,9.389-3.13,9.389-3.13c4.878-1.017,7.691-1.668,5.1-6.989C171.921,666.539,169.842,667.275,169.423,666.634Z" transform="translate(-157.221 -576.581)" fill="#2f2e41"/>
    <path id="Path_22898" data-name="Path 22898" d="M345.367,666.634s1.138-2.276,2.561-1.138,4.836,4.552,4.836,4.552,8.251,3.7,3.13,5.974-9.389-3.13-9.389-3.13c-4.878-1.017-7.691-1.668-5.1-6.989C342.869,666.539,344.948,667.275,345.367,666.634Z" transform="translate(-307.56 -576.581)" fill="#2f2e41"/>
    <path id="Path_22899" data-name="Path 22899" d="M284.663,239.243c-.423,7.082-10.089,6.459-10.242,0C274.844,232.161,284.51,232.784,284.663,239.243Z" transform="translate(-253.4 -222.876)" fill="#ffb8b8"/>
    <path id="Path_22900" data-name="Path 22900" d="M290.282,279.2c2.489,7.522-3.387,3.427,4.837,9.388l3.129-6.259s-2.276-.853-1.991-3.983Z" transform="translate(-266.416 -259.138)" fill="#ffb8b8"/>
    <path id="Path_22901" data-name="Path 22901" d="M260.106,298.043l-8.481-1.936c.239,5.114-5.219,4.084-6.171,1.512l-8.108,4.691c3.4,12.675,2.541,13.2-1.992,21.338-1.73,1.58.857,2.485,3.109,1.62,1.718-1.06,2.59-2,4.43-1.762,8.7,1.811,15.936,2.238,17.082,1.531C260.386,324.45,259.964,298.145,260.106,298.043Z" transform="translate(-220.877 -273.71)" fill="#575a89"/>
    <path id="Path_22902" data-name="Path 22902" d="M363.245,306.919a11.207,11.207,0,0,0,1.75-.689c4.264-.072,7.125,28.608,7.354,29.424l-2.845,1.992-4.552-11.664Z" transform="translate(-326.292 -282.017)" fill="#575a89"/>
    <path id="Path_22903" data-name="Path 22903" d="M252.215,493.048c.145,1.074.393,13.132,4.712,7.5.567-4.109-1.36-5.336-1.867-8.068Z" transform="translate(-235.177 -434.859)" fill="#ffb8b8"/>
    <path id="Path_22904" data-name="Path 22904" d="M240.472,328.478l-.872-.483c-2.337-.077-1.6,6.109-2.589,10.64-.808,5.278-.578,11.1.37,18.878.083,2.855,5.2,1.056,5.936.838,0,0-1.707-11.665-.853-13.656S240.472,328.478,240.472,328.478Z" transform="translate(-222.296 -299.877)" fill="#575a89"/>
    <path id="Path_22905" data-name="Path 22905" d="M280.347,221.726a6.1,6.1,0,0,0-3.472-2.654l-1.062.849.413-.991a5.618,5.618,0,0,0-1.049-.061l-.955,1.228.4-1.186c-4.1.44-6.523,5.145-4.4,8.438.328-1.009.727-1.955,1.055-2.964a2.986,2.986,0,0,0,.778,0l.4-.932.112.892c1.238-.108,3.073-.345,4.247-.561l-.114-.685.683.569c.359-.083.573-.158.555-.215.873,1.407,1.737,2.305,2.61,3.712C280.876,225.185,281.461,223.536,280.347,221.726Z" transform="translate(-249.307 -210.323)" fill="#2f2e41"/>
    <rect id="Rectangle_253" data-name="Rectangle 253" width="24.818" height="11.773" transform="translate(94.6 61.698)" fill="#fff"/>
    <rect id="Rectangle_254" data-name="Rectangle 254" width="15.432" height="1.412" transform="translate(99.293 64.164)" fill="#e6e6e6"/>
    <rect id="Rectangle_255" data-name="Rectangle 255" width="15.432" height="1.412" transform="translate(99.293 66.879)" fill="#e6e6e6"/>
    <rect id="Rectangle_256" data-name="Rectangle 256" width="15.432" height="1.412" transform="translate(99.293 69.594)" fill="#e6e6e6"/>
    <path id="Path_22906" data-name="Path 22906" d="M392.142,346.776l-.807-1.4-.807-1.4-.807,1.4-.807,1.4h.867v4.049h1.494v-4.049Z" transform="translate(-319.155 -282.281)" fill="#fff"/>
    <circle id="Ellipse_44" data-name="Ellipse 44" cx="6.647" cy="6.647" r="6.647" transform="translate(121.041 80.011)" fill="#3f3d56"/>
    <circle id="Ellipse_45" data-name="Ellipse 45" cx="2.946" cy="2.946" r="2.946" transform="translate(125.951 83.712)" fill="#e6e6e6"/>
    <path id="Path_22907" data-name="Path 22907" d="M649.98,509.033l14.5,6.043-.453,1.435-8.347-.944-14.126-6.27,7.856.907Z" transform="translate(-526.484 -417.729)" fill="#3f3d56"/>
    <path id="Path_22908" data-name="Path 22908" d="M856.926,384.33l18.038-59.171,4.393-7.8.015-.075a4.238,4.238,0,0,0-.457-2.88,2.586,2.586,0,0,0-1.747-1.1c-2.424-.455-7.848-.679-8.078-.688l-.043,0-.043.006c-.148.02-3.614.527-4.4,3.554l-3.771,6.863-.015.049-17.072,56.125.94.286,17.057-56.076,3.784-6.886.015-.063c.554-2.278,3.2-2.811,3.555-2.872.554.024,5.652.25,7.888.67a1.619,1.619,0,0,1,1.11.68,3.182,3.182,0,0,1,.323,2.07l-4.366,7.753-.016.051-18.053,59.222Z" transform="translate(-720.609 -287.255)" fill="#3f3d56"/>
    <rect id="Rectangle_257" data-name="Rectangle 257" width="0.982" height="13.238" transform="translate(138.778 42.42) rotate(-79.762)" fill="#3f3d56"/>
    <rect id="Rectangle_258" data-name="Rectangle 258" width="0.982" height="13.201" transform="matrix(0.2, -0.98, 0.98, 0.2, 136.324, 50.454)" fill="#3f3d56"/>
    <rect id="Rectangle_259" data-name="Rectangle 259" width="0.982" height="13.135" transform="translate(131.919 64.808) rotate(-74.032)" fill="#3f3d56"/>
    <path id="Path_22909" data-name="Path 22909" d="M722.263,448.7l.358-.915-12.257-4.8-.6-6.517,11.44,4.273,3.706,5.363.808-.558-3.882-5.617L708.64,435l.8,8.678Z" transform="translate(-581.534 -356.976)" fill="#3f3d56"/>
    <circle id="Ellipse_46" data-name="Ellipse 46" cx="6.647" cy="6.647" r="6.647" transform="translate(138.339 86.356)" fill="#3f3d56"/>
    <circle id="Ellipse_47" data-name="Ellipse 47" cx="2.946" cy="2.946" r="2.946" transform="translate(143.778 90.359)" fill="#e6e6e6"/>
  </g>
</svg>
